<svg width="19" height="15" viewBox="0 0 19 15" fill="none" xmlns="http://www.w3.org/2000/svg">
<path fill-rule="evenodd" clip-rule="evenodd" d="M12.6667 7.5C12.6667 9.2489 11.2489 10.6667 9.50003 10.6667C7.75112 10.6667 6.33336 9.2489 6.33336 7.5C6.33336 5.7511 7.75112 4.33333 9.50003 4.33333C11.2489 4.33333 12.6667 5.7511 12.6667 7.5ZM11.0834 7.5C11.0834 8.37445 10.3745 9.08333 9.50003 9.08333C8.62558 9.08333 7.91669 8.37445 7.91669 7.5C7.91669 6.62555 8.62558 5.91667 9.50003 5.91667C10.3745 5.91667 11.0834 6.62555 11.0834 7.5Z" fill="#79321B"/>
<path fill-rule="evenodd" clip-rule="evenodd" d="M9.50002 0.375C13.9266 0.375 17.6461 3.40259 18.7007 7.5C17.6461 11.5974 13.9266 14.625 9.50002 14.625C5.07341 14.625 1.35392 11.5974 0.299316 7.5C1.35392 3.40259 5.07341 0.375 9.50002 0.375ZM9.50002 13.0417C5.95687 13.0417 2.95398 10.7127 1.94533 7.5C2.95399 4.28731 5.95687 1.95833 9.50002 1.95833C13.0432 1.95833 16.0461 4.28731 17.0547 7.5C16.0461 10.7127 13.0432 13.0417 9.50002 13.0417Z" fill="#79321B"/>
</svg>
